Coordinates
version=1
nRows=13
nColumns=40
inDegrees=yes

Units are S.I. units (second, meters, Newtons, ...)
Angles are in degrees.

endheader
time	pelvis_tilt	pelvis_list	pelvis_rotation	pelvis_tx	pelvis_ty	pelvis_tz	hip_flexion_r	hip_adduction_r	hip_rotation_r	knee_angle_r	knee_angle_r_beta	ankle_angle_r	subtalar_angle_r	mtp_angle_r	hip_flexion_l	hip_adduction_l	hip_rotation_l	knee_angle_l	knee_angle_l_beta	ankle_angle_l	subtalar_angle_l	mtp_angle_l	lumbar_extension	lumbar_bending	lumbar_rotation	arm_flex_r	arm_add_r	arm_rot_r	elbow_flex_r	pro_sup_r	wrist_flex_r	wrist_dev_r	arm_flex_l	arm_add_l	arm_rot_l	elbow_flex_l	pro_sup_l	wrist_flex_l	wrist_dev_l
     46.11000000	     -1.38986230	     -3.53156896	      2.61640502	      1.06266117	      0.93337102	      0.39820618	     24.53722816	     -7.47072225	     -4.43672641	     65.16499517	     65.16499517	      0.17851605	    -13.90863445	     -0.87337892	     14.89923401	     -3.44652483	     -5.74038412	     23.29426625	     23.29426625	     12.24420843	    -10.24393577	      0.42457744	     -9.23386790	      4.45402910	      2.24911787	     14.70856636	    -12.40034679	     -1.15722356	     30.50798582	     45.76243956	      0.00000000	      0.00000000	     14.97610340	    -13.99744184	      3.32659308	     42.03922316	     45.44964811	      0.00000000	      0.00000000
     46.12385714	     -1.30042220	     -3.69261232	      2.37698286	      1.06175594	      0.93428361	      0.39755939	     25.35899933	     -7.36579086	     -4.61677608	     64.34584702	     64.34584702	      0.21403320	    -14.18308729	     -0.73949148	     14.18766832	     -3.67609376	     -6.19039657	     22.89049767	     22.89049767	     12.51583535	     -9.66741301	      0.24725881	     -9.32359310	      4.70027427	      2.17545482	     12.73448019	    -12.58949398	     -1.07558484	     29.12940050	     45.80614587	      0.00000000	      0.00000000	     16.22668235	    -14.38532417	      3.02889370	     42.97621069	     45.51202522	      0.00000000	      0.00000000
     46.13771429	     -1.20331799	     -3.82082757	      2.13695054	      1.06086291	      0.93516320	      0.39691163	     26.09533581	     -7.30704234	     -4.82601363	     63.36020859	     63.36020859	      0.27024535	    -14.30471122	     -0.55518721	     13.44371128	     -3.84766827	     -6.60580023	     22.44623821	     22.44623821	     12.76638596	     -9.16117231	      0.10471410	     -9.44997528	      4.90051650	      2.07370853	     10.77828505	    -12.77253705	     -0.99509665	     27.75851600	     45.85032023	      0.00000000	      0.00000000	     17.41556183	    -14.81623714	      2.69399371	     44.08213005	     45.57840196	      0.00000000	      0.00000000
     46.15157143	     -1.09091025	     -3.92763588	      1.87014306	      1.06004406	      0.93604336	      0.39628074	     26.70208692	     -7.25314158	     -5.02206702	     62.10516895	     62.10516895	      0.30677063	    -14.32234341	     -0.28142424	     12.63847715	     -3.98124387	     -7.04994496	     21.92812706	     21.92812706	     13.03837719	     -8.68840162	     -0.02975925	     -9.55834442	      5.11863228	      2.04339951	      8.90037836	    -12.97694197	     -0.92184333	     26.43615363	     45.89444889	      0.00000000	      0.00000000	     18.53316567	    -15.19410451	      2.32814848	     45.31314211	     45.64733116	      0.00000000	      0.00000000
     46.16542857	     -1.04249863	     -4.00034532	      1.63170626	      1.05909365	      0.93676383	      0.39584576	     27.26331612	     -7.21200058	     -5.22523093	     60.56489808	     60.56489808	      0.46479774	    -14.20489390	     -0.02918964	     11.96981710	     -4.08536450	     -7.45036169	     21.49117513	     21.49117513	     13.19898332	     -8.21903027	     -0.18137310	     -9.67832520	      5.24307360	      1.83513188	      7.12500129	    -13.08806420	     -0.88026632	     25.22538605	     45.93980914	      0.00000000	      0.00000000	     19.49593681	    -15.74126514	      1.86732752	     46.58317800	     45.72675092	      0.00000000	      0.00000000
     46.17928571	     -0.98752345	     -4.06031156	      1.35093611	      1.05822029	      0.93747669	      0.39553429	     27.67693316	     -7.14635574	     -5.39002960	     58.65207659	     58.65207659	      0.60383070	    -13.93795455	      0.18187220	     11.22677392	     -4.15570185	     -7.85445807	     20.93956491	     20.93956491	     13.37816185	     -7.84580256	     -0.28167134	     -9.77722857	      5.37480922	      1.67048159	      5.37552362	    -13.25125998	     -0.87189083	     24.26319269	     45.97537504	      0.00000000	      0.00000000	     20.41509334	    -16.24075232	      1.39065892	     47.80211229	     45.80312882	      0.00000000	      0.00000000
     46.19314286	     -1.00653747	     -4.10107240	      1.05796937	      1.05728713	      0.93797373	      0.39543413	     28.01684305	     -7.07111807	     -5.55563007	     56.33455567	     56.33455567	      0.69107038	    -13.57609404	      0.08086410	     10.59184731	     -4.23397055	     -8.34443005	     20.43008829	     20.43008829	     13.48966417	     -7.36064147	     -0.69615426	     -9.84386355	      5.44889576	      1.29635727	      3.77990864	    -13.33377590	     -1.00508760	     23.61385690	     46.04052486	      0.00000000	      0.00000000	     20.74748243	    -16.86041069	      0.22513028	     50.06179332	     45.97366172	      0.00000000	      0.00000000
     46.20700000	     -1.06734667	     -4.12495351	      0.76425171	      1.05633228	      0.93844467	      0.39548027	     28.22981648	     -6.98528882	     -5.73563124	     53.59175707	     53.59175707	      0.90406751	    -12.97085240	      0.18783753	      9.97044121	     -4.24032792	     -8.65147538	     19.83621852	     19.83621852	     13.61105191	     -7.16369125	     -0.68434844	     -9.81526833	      5.53829741	      1.07124965	      2.11902507	    -13.50036092	     -1.02647942	     23.01026485	     46.05920179	      0.00000000	      0.00000000	     21.57917770	    -17.34032946	     -0.16548292	     50.85345383	     46.03106705	      0.00000000	      0.00000000
     46.22085714	     -1.14729347	     -4.10514451	      0.43012643	      1.05537012	      0.93877841	      0.39577072	     28.30122343	     -6.89380365	     -5.89138536	     50.45670348	     50.45670348	      1.14435635	    -12.16712078	      0.18317865	      9.36188101	     -4.22104472	     -9.03334254	     19.24069110	     19.24069110	     13.73945524	     -6.90142487	     -0.74649125	     -9.79683039	      5.53229925	      1.00239460	      0.41382831	    -13.66642102	     -1.09077866	     22.57980742	     46.07300475	      0.00000000	      0.00000000	     22.37618787	    -17.79869946	     -0.65955662	     51.90045577	     46.09955709	      0.00000000	      0.00000000
     46.23471429	     -1.20230118	     -4.01838573	      0.05744044	      1.05436725	      0.93904814	      0.39632153	     28.17253521	     -6.82130199	     -6.04503172	     46.92576792	     46.92576792	      1.39035242	    -11.14534557	     -0.06941720	      8.71698784	     -4.15230924	     -9.51720529	     18.63327789	     18.63327789	     13.85080574	     -6.55521147	     -0.91690928	     -9.87414074	      5.41975518	      1.05192383	     -1.33659926	    -13.85749129	     -1.24841601	     22.48495148	     46.08099219	      0.00000000	      0.00000000	     23.04665617	    -18.16962784	     -1.34585670	     53.33710334	     46.18928489	      0.00000000	      0.00000000
     46.24857143	     -1.29090269	     -3.94182582	     -0.28729643	      1.05346442	      0.93917714	      0.39705971	     27.85267456	     -6.72171906	     -6.33239773	     43.00490477	     43.00490477	      1.54261414	     -9.89026215	     -0.76267576	      8.08109725	     -4.10366416	    -10.07564794	     17.97248793	     17.97248793	     13.89532374	     -6.12878768	     -1.23423674	     -9.91351484	      5.33513517	      1.09439585	     -3.23118861	    -13.97612435	     -1.57699330	     22.95977027	     46.07982717	      0.00000000	      0.00000000	     23.47321888	    -18.52156727	     -2.38590030	     55.26781790	     46.31599296	      0.00000000	      0.00000000
     46.26242857	     -1.56692395	     -3.91541845	     -0.60961534	      1.05239947	      0.93894998	      0.39799960	     27.57510825	     -6.47274303	     -6.62203863	     38.80242379	     38.80242379	      1.65701371	     -8.60406593	     -0.74120820	      7.77385239	     -4.10838187	    -10.39224914	     17.51584493	     17.51584493	     14.00629315	     -5.93582636	     -1.42991764	     -9.68575442	      5.31498538	      0.89840786	     -4.75454768	    -14.07979916	     -1.77017097	     23.00646808	     46.08332172	      0.00000000	      0.00000000	     23.89245942	    -18.99366963	     -2.99249434	     56.26932214	     46.38806175	      0.00000000	      0.00000000
     46.27628571	     -1.70006943	     -3.76551859	     -0.95153441	      1.05155231	      0.93867611	      0.39913573	     26.91619712	     -6.33384142	     -7.05066230	     34.29949970	     34.29949970	      1.28100403	     -7.07816817	     -2.50460103	      7.23350138	     -4.01687906	    -10.96354140	     16.94026249	     16.94026249	     13.88729171	     -5.48609539	     -2.39964373	     -9.75713036	      5.13611680	      0.69714168	     -6.85785201	    -14.19449064	     -2.84502111	     25.26688073	     46.07674812	      0.00000000	      0.00000000	     23.57437697	    -19.24599667	     -5.27194706	     59.26351381	     46.63960811	      0.00000000	      0.00000000
